<?xml version="1.0" encoding="UTF-8" standalone="no"?>
<!-- Created with Inkscape (http://www.inkscape.org/) -->

<svg
   version="1.1"
   id="svg1"
   width="720"
   height="720"
   viewBox="0 0 720 720"
   sodipodi:docname="logo.svg"
   inkscape:export-filename="logo-small.png"
   inkscape:export-xdpi="32"
   inkscape:export-ydpi="32"
   inkscape:version="1.3.2 (091e20ef0f, 2023-11-25, custom)"
   xmlns:inkscape="http://www.inkscape.org/namespaces/inkscape"
   xmlns:sodipodi="http://sodipodi.sourceforge.net/DTD/sodipodi-0.dtd"
   xmlns="http://www.w3.org/2000/svg"
   xmlns:svg="http://www.w3.org/2000/svg">
  <defs
     id="defs1" />
  <sodipodi:namedview
     id="namedview1"
     pagecolor="#ffffff"
     bordercolor="#000000"
     borderopacity="0.25"
     inkscape:showpageshadow="2"
     inkscape:pageopacity="0.0"
     inkscape:pagecheckerboard="0"
     inkscape:deskcolor="#d1d1d1"
     inkscape:zoom="0.95562419"
     inkscape:cx="211.90338"
     inkscape:cy="360.49736"
     inkscape:window-width="2036"
     inkscape:window-height="1217"
     inkscape:window-x="0"
     inkscape:window-y="0"
     inkscape:window-maximized="1"
     inkscape:current-layer="g1" />
  <g
     inkscape:groupmode="layer"
     inkscape:label="Image"
     id="g1">
    <path
       style="fill:#008dff"
       d="m 241.24826,663.68176 c 0,-0.6938 23.35237,-63.47348 51.89415,-139.51039 48.76716,-129.91846 51.76495,-138.27536 49.75,-138.68734 -1.17928,-0.24112 -31.61915,-2.06014 -67.64415,-4.04226 -36.025,-1.98213 -66.83192,-3.93063 -68.45983,-4.33 -1.74884,-0.42904 59.19593,-5.50609 148.95784,-12.40905 83.55471,-6.42561 152.07758,-11.523 152.27304,-11.32754 0.28002,0.28002 -250.2106,292.97799 -263.4279,307.81516 -1.83873,2.06409 -3.34315,3.18523 -3.34315,2.49142 z m 145.3831,-204.73902 c 35.00673,-40.42209 63.10916,-73.67453 62.44985,-73.8943 -0.6593,-0.21976 -18.412,0.42821 -39.45044,1.43996 l -38.2517,1.83953 -24.01954,66.05477 c -13.21074,36.33012 -25.64557,70.55476 -27.63296,76.05476 l -3.61342,10 3.43482,-4 c 1.88914,-2.2 32.07667,-37.07262 67.08339,-77.49472 z M 209.78522,366.87766 c 1.47743,-2.39053 265.40304,-309.785091 266.62822,-310.542291 0.82496,-0.50985 0.95156,-0.15615 0.42523,1.18804 -12.04842,30.770103 -103.58463,276.753171 -103.14872,277.189081 0.34319,0.34318 31.8842,2.43182 70.09114,4.64142 38.20694,2.20961 69.46717,4.26122 69.46717,4.55915 0,0.29793 -66.7125,5.64047 -148.25,11.8723 -81.5375,6.23182 -150.00641,11.58397 -152.15314,11.89364 -3.13285,0.45193 -3.73673,0.29379 -3.0599,-0.80134 z m 98.79049,-32.60854 c 20.80675,-1.00147 36.39763,-2.16617 37.18746,-2.77805 0.748,-0.57949 13.37535,-34.12861 28.06078,-74.55361 14.68543,-40.425 26.94689,-74.175 27.2477,-75 0.3008,-0.825 -29.06564,32.7 -65.25877,74.5 -36.19312,41.8 -66.49618,76.7875 -67.34014,77.75 -1.95588,2.23062 -4.43952,2.22556 40.10297,0.0817 z"
       id="path1" />
  </g>
</svg>
